<svg id="Layer_1" data-name="Layer 1" xmlns="http://www.w3.org/2000/svg" viewBox="0 0 366 304"><defs><style>.cls-1{fill:#ae8f74;}.cls-2{fill:#fff;}.cls-3{fill:none;stroke:#fff;stroke-linecap:round;stroke-linejoin:round;stroke-width:4.5px;}</style></defs><title>icon_play</title><path class="cls-1" d="M-926.89,730.15v-252c0-.85,0-1.7.13-2.55s.21-1.68.37-2.52.38-1.66.62-2.47.54-1.62.86-2.41.69-1.55,1.09-2.3.84-1.48,1.32-2.19a25.26,25.26,0,0,1,1.52-2q.81-1,1.71-1.89c.6-.6,1.23-1.18,1.89-1.72s1.34-1,2-1.52,1.44-.91,2.19-1.31,1.52-.76,2.3-1.09,1.59-.61,2.41-.86,1.64-.45,2.47-.62,1.68-.29,2.53-.37a23.87,23.87,0,0,1,2.54-.13h314a23.92,23.92,0,0,1,2.55.13c.85.08,1.69.21,2.53.37s1.66.38,2.47.62,1.62.54,2.4.86,1.56.69,2.31,1.09,1.48.84,2.19,1.31,1.39,1,2.05,1.52,1.29,1.12,1.89,1.72,1.17,1.23,1.71,1.89a25.26,25.26,0,0,1,1.52,2A24.36,24.36,0,0,1-564,465.9a23,23,0,0,1,1.09,2.3,23,23,0,0,1,.86,2.41,23.47,23.47,0,0,1,.62,2.47,24.34,24.34,0,0,1,.38,2.52q.12,1.27.12,2.55v252q0,1.27-.12,2.55a24.13,24.13,0,0,1-.38,2.53,23.47,23.47,0,0,1-.62,2.47,22.08,22.08,0,0,1-.86,2.4,22.11,22.11,0,0,1-1.09,2.31,24.36,24.36,0,0,1-1.31,2.19,25.26,25.26,0,0,1-1.52,2q-.81,1-1.71,1.89t-1.89,1.71a25.26,25.26,0,0,1-2.05,1.52c-.71.47-1.44.91-2.19,1.31a24.34,24.34,0,0,1-2.31,1.09,22.08,22.08,0,0,1-2.4.86,23.47,23.47,0,0,1-2.47.62c-.84.17-1.68.29-2.53.38s-1.69.12-2.55.12h-314c-.85,0-1.7,0-2.54-.12s-1.69-.21-2.53-.38a23.47,23.47,0,0,1-2.47-.62,23,23,0,0,1-2.41-.86,25.38,25.38,0,0,1-2.3-1.09c-.75-.4-1.48-.84-2.19-1.31a25.26,25.26,0,0,1-2-1.52q-1-.81-1.89-1.71t-1.71-1.89a25.26,25.26,0,0,1-1.52-2c-.48-.71-.91-1.44-1.32-2.19s-.76-1.52-1.09-2.31-.61-1.58-.86-2.4-.45-1.64-.62-2.47-.29-1.68-.37-2.53S-926.89,731-926.89,730.15Z" transform="translate(926.89 -452.15)"/><path class="cls-2" d="M-754,661.87q2.21,1.88,2.21,5.76t-2.27,5.69q-2.26,1.8-6.91,1.8h-2.79V681h-4.68V660H-761Q-756.19,660-754,661.87Zm-3.43,8.25a4,4,0,0,0,.84-2.76,2.93,2.93,0,0,0-1.1-2.58,6,6,0,0,0-3.4-.76h-2.67v7.05h3.15A4.18,4.18,0,0,0-757.42,670.12Z" transform="translate(926.89 -452.15)"/><path class="cls-2" d="M-744.07,681h-4.5V658.71h4.5Z" transform="translate(926.89 -452.15)"/><path class="cls-2" d="M-726.1,681h-4.23v-2a5.32,5.32,0,0,1-4.31,2.19,6.37,6.37,0,0,1-4.3-1.49,5,5,0,0,1-1.75-4,4.19,4.19,0,0,1,1.81-3.7,8.59,8.59,0,0,1,4.92-1.23h3.36v-.09c0-1.72-.92-2.58-2.73-2.58a7.39,7.39,0,0,0-2.48.46,7.86,7.86,0,0,0-2.2,1.16l-2-2.91a12,12,0,0,1,7.26-2.31A7.55,7.55,0,0,1-728,666a5.6,5.6,0,0,1,1.86,4.65Zm-4.53-6.15V674h-2.82q-2.7,0-2.7,1.68a1.53,1.53,0,0,0,.64,1.33,3.13,3.13,0,0,0,1.84.47,3.3,3.3,0,0,0,2.12-.74A2.39,2.39,0,0,0-730.63,674.82Z" transform="translate(926.89 -452.15)"/><path class="cls-2" d="M-719.41,687.33a6.54,6.54,0,0,1-4.47-1.92l2-3.33a3.37,3.37,0,0,0,2.34,1.11,1.32,1.32,0,0,0,1.08-.62,2.16,2.16,0,0,0,.45-1.3q0-.69-6.24-16.44h4.8l3.93,10,3.93-10h4.8l-7.5,19a5.35,5.35,0,0,1-2.06,2.56A5.53,5.53,0,0,1-719.41,687.33Z" transform="translate(926.89 -452.15)"/><path class="cls-3" d="M-789.51,618.37V554.3a11,11,0,0,1,.21-2.14,11.5,11.5,0,0,1,.63-2.07,11.58,11.58,0,0,1,1-1.9,10.83,10.83,0,0,1,1.36-1.66,10.86,10.86,0,0,1,1.67-1.37,11.58,11.58,0,0,1,1.9-1,11.5,11.5,0,0,1,2.07-.63,11,11,0,0,1,2.14-.21h78.42a11,11,0,0,1,2.14.21,11.5,11.5,0,0,1,2.07.63,11.58,11.58,0,0,1,1.9,1,10.33,10.33,0,0,1,1.66,1.37,10.89,10.89,0,0,1,1.37,1.66,11.58,11.58,0,0,1,1,1.9,10.72,10.72,0,0,1,.62,2.07,10.3,10.3,0,0,1,.22,2.14v64.07a10.39,10.39,0,0,1-.22,2.15,10.62,10.62,0,0,1-.62,2.06,11.19,11.19,0,0,1-1,1.9,11,11,0,0,1-1.37,1.67,10.89,10.89,0,0,1-1.66,1.37,10.82,10.82,0,0,1-1.9,1,10.75,10.75,0,0,1-2.07.63,11,11,0,0,1-2.14.21h-78.42a11,11,0,0,1-2.14-.21,10.75,10.75,0,0,1-2.07-.63,10.82,10.82,0,0,1-1.9-1,11.48,11.48,0,0,1-1.67-1.37,10.91,10.91,0,0,1-1.36-1.67,11.19,11.19,0,0,1-1-1.9,11.4,11.4,0,0,1-.63-2.06A11.11,11.11,0,0,1-789.51,618.37Z" transform="translate(926.89 -452.15)"/><path class="cls-3" d="M-752.3,569.22c0-1.65,1.15-2.3,2.57-1.44l28.3,17c1.42.85,1.42,2.24,0,3.09l-28.3,17c-1.42.86-2.57.21-2.57-1.45Z" transform="translate(926.89 -452.15)"/></svg>