<svg id="Layer_1" data-name="Layer 1" xmlns="http://www.w3.org/2000/svg" viewBox="0 0 366 304"><defs><style>.cls-1{fill:#ae8f74;}.cls-2{fill:#fff;}.cls-3{fill:none;stroke:#fdfcfa;stroke-width:1.2px;}</style></defs><title>icon_schedule</title><path class="cls-1" d="M-926.89,1048.15v-252c0-.85,0-1.7.13-2.55s.21-1.68.37-2.52.38-1.66.62-2.47.54-1.62.86-2.41.69-1.55,1.09-2.3.84-1.48,1.32-2.19a25.26,25.26,0,0,1,1.52-2.05q.81-1,1.71-1.89c.6-.6,1.23-1.18,1.89-1.72s1.34-1,2-1.52,1.44-.91,2.19-1.31,1.52-.76,2.3-1.09,1.59-.61,2.41-.86,1.64-.45,2.47-.62,1.68-.29,2.53-.37a23.87,23.87,0,0,1,2.54-.13h314a23.92,23.92,0,0,1,2.55.13c.85.08,1.69.21,2.53.37s1.66.38,2.47.62,1.62.54,2.4.86,1.56.69,2.31,1.09,1.48.84,2.19,1.31,1.39,1,2.05,1.52,1.29,1.12,1.89,1.72,1.17,1.23,1.71,1.89a25.26,25.26,0,0,1,1.52,2.05A24.36,24.36,0,0,1-564,783.9a23,23,0,0,1,1.09,2.3,23,23,0,0,1,.86,2.41,23.47,23.47,0,0,1,.62,2.47,24.34,24.34,0,0,1,.38,2.52q.12,1.27.12,2.55v252q0,1.27-.12,2.55a24.13,24.13,0,0,1-.38,2.53,23.47,23.47,0,0,1-.62,2.47,22.08,22.08,0,0,1-.86,2.4,22.11,22.11,0,0,1-1.09,2.31,24.36,24.36,0,0,1-1.31,2.19,25.26,25.26,0,0,1-1.52,2.05q-.81,1-1.71,1.89t-1.89,1.71a25.26,25.26,0,0,1-2.05,1.52c-.71.47-1.44.91-2.19,1.31a24.34,24.34,0,0,1-2.31,1.09,22.08,22.08,0,0,1-2.4.86,23.47,23.47,0,0,1-2.47.62c-.84.17-1.68.29-2.53.38s-1.69.12-2.55.12h-314c-.85,0-1.7,0-2.54-.12s-1.69-.21-2.53-.38a23.47,23.47,0,0,1-2.47-.62,23,23,0,0,1-2.41-.86,25.38,25.38,0,0,1-2.3-1.09c-.75-.4-1.48-.84-2.19-1.31a25.26,25.26,0,0,1-2-1.52q-1-.81-1.89-1.71t-1.71-1.89a25.26,25.26,0,0,1-1.52-2.05c-.48-.71-.91-1.44-1.32-2.19s-.76-1.52-1.09-2.31-.61-1.58-.86-2.4-.45-1.64-.62-2.47-.29-1.68-.37-2.53S-926.89,1049-926.89,1048.15Z" transform="translate(926.89 -770.15)"/><path class="cls-2" d="M-806.8,982.18a1.8,1.8,0,0,0-.67,1.47,1.66,1.66,0,0,0,.82,1.46,15.15,15.15,0,0,0,3.81,1.27,10.75,10.75,0,0,1,4.64,2.21,5.45,5.45,0,0,1,1.65,4.29,5.66,5.66,0,0,1-2.12,4.57,8.42,8.42,0,0,1-5.56,1.76,12.88,12.88,0,0,1-9-3.69l2.79-3.42q3.39,3,6.27,3a3.28,3.28,0,0,0,2-.56,1.79,1.79,0,0,0,.74-1.5,1.75,1.75,0,0,0-.78-1.5,10.2,10.2,0,0,0-3.09-1.12,13.46,13.46,0,0,1-5.36-2.27,5.35,5.35,0,0,1-1.69-4.38,5.42,5.42,0,0,1,2.14-4.6,8.65,8.65,0,0,1,5.36-1.62,12.88,12.88,0,0,1,4.2.72,11.25,11.25,0,0,1,3.66,2l-2.37,3.42a9.23,9.23,0,0,0-5.64-2.07A2.83,2.83,0,0,0-806.8,982.18Z" transform="translate(926.89 -770.15)"/><path class="cls-2" d="M-785.27,995.22a5.16,5.16,0,0,0,4-2.25l2.67,3a9.28,9.28,0,0,1-6.75,3.24,8.77,8.77,0,0,1-6.14-2.3,7.75,7.75,0,0,1-2.5-6,7.8,7.8,0,0,1,2.53-6,8.61,8.61,0,0,1,6-2.32,9.35,9.35,0,0,1,3.52.72,8.93,8.93,0,0,1,3.14,2.13l-2.34,3.06A5.34,5.34,0,0,0-783,987a5.36,5.36,0,0,0-2.23-.51,4.39,4.39,0,0,0-3,1.15,4.11,4.11,0,0,0-1.27,3.21,4.07,4.07,0,0,0,1.27,3.2A4.35,4.35,0,0,0-785.27,995.22Z" transform="translate(926.89 -770.15)"/><path class="cls-2" d="M-771,990.27V999h-4.5V976.71h4.5v7.92a6.27,6.27,0,0,1,4.57-2.07,5.72,5.72,0,0,1,4.28,1.8,6.61,6.61,0,0,1,1.74,4.8V999H-765v-8.82q0-3.72-2.73-3.72a3.28,3.28,0,0,0-2.36,1A3.82,3.82,0,0,0-771,990.27Z" transform="translate(926.89 -770.15)"/><path class="cls-2" d="M-742.4,996.63a9,9,0,0,1-6.41,2.58,8.49,8.49,0,0,1-6.07-2.27,8,8,0,0,1-2.4-6.07,7.83,7.83,0,0,1,2.44-6.06,8.26,8.26,0,0,1,5.78-2.25,8.34,8.34,0,0,1,5.65,2,6.92,6.92,0,0,1,2.33,5.52v2.4h-11.76a3.21,3.21,0,0,0,1.38,2.16,4.42,4.42,0,0,0,2.64.84,5.18,5.18,0,0,0,3.9-1.59Zm-4.32-9.57a3.42,3.42,0,0,0-2.27-.78,4,4,0,0,0-2.44.81,3.1,3.1,0,0,0-1.29,2.19h7.08A3.19,3.19,0,0,0-746.72,987.06Z" transform="translate(926.89 -770.15)"/><path class="cls-2" d="M-731.38,999.21a6.81,6.81,0,0,1-5.11-2.43,8.54,8.54,0,0,1-2.25-6,8.2,8.2,0,0,1,2.19-5.9,6.87,6.87,0,0,1,5.13-2.29,6.16,6.16,0,0,1,4.8,2.07v-7.92h4.5V999h-4.5v-2.13A5.85,5.85,0,0,1-731.38,999.21Zm-2.83-8.28a4.47,4.47,0,0,0,1.17,3.19,3.64,3.64,0,0,0,2.73,1.25,3.41,3.41,0,0,0,2.65-1.25,4.68,4.68,0,0,0,1.1-3.21,4.92,4.92,0,0,0-1.1-3.27,3.36,3.36,0,0,0-2.68-1.3,3.49,3.49,0,0,0-2.73,1.32A4.83,4.83,0,0,0-734.21,990.93Z" transform="translate(926.89 -770.15)"/><path class="cls-2" d="M-707.45,991.53v-8.7h4.53V999h-4.53v-2.13a5.11,5.11,0,0,1-4.34,2.37,6.3,6.3,0,0,1-4.45-1.67,6.38,6.38,0,0,1-1.8-4.93v-9.78h4.53v8.79q0,3.72,2.73,3.72a3.23,3.23,0,0,0,2.34-1A3.79,3.79,0,0,0-707.45,991.53Z" transform="translate(926.89 -770.15)"/><path class="cls-2" d="M-694.16,999h-4.5V976.71h4.5Z" transform="translate(926.89 -770.15)"/><path class="cls-2" d="M-675.92,996.63a9,9,0,0,1-6.41,2.58,8.49,8.49,0,0,1-6.07-2.27,8,8,0,0,1-2.4-6.07,7.83,7.83,0,0,1,2.44-6.06,8.26,8.26,0,0,1,5.78-2.25,8.34,8.34,0,0,1,5.65,2,6.92,6.92,0,0,1,2.33,5.52v2.4h-11.76a3.21,3.21,0,0,0,1.38,2.16,4.42,4.42,0,0,0,2.64.84,5.18,5.18,0,0,0,3.9-1.59Zm-4.32-9.57a3.42,3.42,0,0,0-2.27-.78,4,4,0,0,0-2.44.81,3.1,3.1,0,0,0-1.29,2.19h7.08A3.19,3.19,0,0,0-680.24,987.06Z" transform="translate(926.89 -770.15)"/><path class="cls-2" d="M-699.55,881.26h-93.33V869.75a5,5,0,0,1,5-4.94h8.33v3.29a6.63,6.63,0,0,0,6.67,6.58,6.63,6.63,0,0,0,6.67-6.58v-3.29h13.33v3.29a6.62,6.62,0,0,0,6.67,6.58,6.62,6.62,0,0,0,6.66-6.58v-3.29h13.34v3.29a6.62,6.62,0,0,0,6.66,6.58,6.63,6.63,0,0,0,6.67-6.58v-3.29h8.33a5,5,0,0,1,5,4.94Zm-76.66-23a3.31,3.31,0,0,1,3.33-3.29,3.31,3.31,0,0,1,3.33,3.29v9.87a3.31,3.31,0,0,1-3.33,3.29,3.31,3.31,0,0,1-3.33-3.29Zm26.66,0a3.31,3.31,0,0,1,3.34-3.29,3.31,3.31,0,0,1,3.33,3.29v9.87a3.31,3.31,0,0,1-3.33,3.29,3.31,3.31,0,0,1-3.34-3.29Zm26.67,0a3.31,3.31,0,0,1,3.33-3.29,3.32,3.32,0,0,1,3.34,3.29v9.87a3.32,3.32,0,0,1-3.34,3.29,3.31,3.31,0,0,1-3.33-3.29Zm18.33,3.29h-8.33v-3.29a6.63,6.63,0,0,0-6.67-6.58,6.62,6.62,0,0,0-6.66,6.58v3.29h-13.34v-3.29a6.62,6.62,0,0,0-6.66-6.58,6.62,6.62,0,0,0-6.67,6.58v3.29h-13.33v-3.29a6.63,6.63,0,0,0-6.67-6.58,6.63,6.63,0,0,0-6.67,6.58v3.29h-8.33a8.28,8.28,0,0,0-8.33,8.23v65.79a8.28,8.28,0,0,0,8.33,8.23h46.67a1.65,1.65,0,0,0,1.66-1.65,1.65,1.65,0,0,0-1.66-1.64h-46.67a5,5,0,0,1-5-4.94v-51h93.33v28a1.66,1.66,0,0,0,1.67,1.65,1.66,1.66,0,0,0,1.67-1.65V869.75a8.29,8.29,0,0,0-8.34-8.23Z" transform="translate(926.89 -770.15)"/><path class="cls-3" d="M-699.55,881.26h-93.33V869.75a5,5,0,0,1,5-4.94h8.33v3.29a6.63,6.63,0,0,0,6.67,6.58,6.63,6.63,0,0,0,6.67-6.58v-3.29h13.33v3.29a6.62,6.62,0,0,0,6.67,6.58,6.62,6.62,0,0,0,6.66-6.58v-3.29h13.34v3.29a6.62,6.62,0,0,0,6.66,6.58,6.63,6.63,0,0,0,6.67-6.58v-3.29h8.33a5,5,0,0,1,5,4.94Zm-76.66-23a3.31,3.31,0,0,1,3.33-3.29,3.31,3.31,0,0,1,3.33,3.29v9.87a3.31,3.31,0,0,1-3.33,3.29,3.31,3.31,0,0,1-3.33-3.29Zm26.66,0a3.31,3.31,0,0,1,3.34-3.29,3.31,3.31,0,0,1,3.33,3.29v9.87a3.31,3.31,0,0,1-3.33,3.29,3.31,3.31,0,0,1-3.34-3.29Zm26.67,0a3.31,3.31,0,0,1,3.33-3.29,3.32,3.32,0,0,1,3.34,3.29v9.87a3.32,3.32,0,0,1-3.34,3.29,3.31,3.31,0,0,1-3.33-3.29Zm18.33,3.29h-8.33v-3.29a6.63,6.63,0,0,0-6.67-6.58,6.62,6.62,0,0,0-6.66,6.58v3.29h-13.34v-3.29a6.62,6.62,0,0,0-6.66-6.58,6.62,6.62,0,0,0-6.67,6.58v3.29h-13.33v-3.29a6.63,6.63,0,0,0-6.67-6.58,6.63,6.63,0,0,0-6.67,6.58v3.29h-8.33a8.28,8.28,0,0,0-8.33,8.23v65.79a8.28,8.28,0,0,0,8.33,8.23h46.67a1.65,1.65,0,0,0,1.66-1.65,1.65,1.65,0,0,0-1.66-1.64h-46.67a5,5,0,0,1-5-4.94v-51h93.33v28a1.66,1.66,0,0,0,1.67,1.65,1.66,1.66,0,0,0,1.67-1.65V869.75a8.29,8.29,0,0,0-8.34-8.23Z" transform="translate(926.89 -770.15)"/><path class="cls-2" d="M-762.23,898.17v-5.91h7.89v5.91Zm11.83-5.91a3.94,3.94,0,0,0-3.94-4h-7.89a3.94,3.94,0,0,0-3.94,4v5.91a3.93,3.93,0,0,0,3.94,3.94h7.89a3.93,3.93,0,0,0,3.94-3.94Z" transform="translate(926.89 -770.15)"/><path class="cls-2" d="M-782.19,898.17v-5.91h7.89v5.91Zm11.83-5.91a3.94,3.94,0,0,0-3.94-4h-7.89a3.94,3.94,0,0,0-3.94,4v5.91a3.93,3.93,0,0,0,3.94,3.94h7.89a3.93,3.93,0,0,0,3.94-3.94Z" transform="translate(926.89 -770.15)"/><path class="cls-2" d="M-722.3,892.26h7.88v5.91h-7.88Zm7.88,9.85a3.94,3.94,0,0,0,3.95-3.94v-5.91a4,4,0,0,0-3.95-4h-7.88a4,4,0,0,0-4,4v5.91a3.94,3.94,0,0,0,4,3.94Z" transform="translate(926.89 -770.15)"/><path class="cls-2" d="M-762.23,912.81v-5.92h7.89v5.92Zm11.83-5.92a3.93,3.93,0,0,0-3.94-3.94h-7.89a3.93,3.93,0,0,0-3.94,3.94v5.92a3.93,3.93,0,0,0,3.94,3.94h7.89a3.93,3.93,0,0,0,3.94-3.94Z" transform="translate(926.89 -770.15)"/><path class="cls-2" d="M-782.19,912.81v-5.92h7.89v5.92Zm11.83-5.92A3.93,3.93,0,0,0-774.3,903h-7.89a3.93,3.93,0,0,0-3.94,3.94v5.92a3.93,3.93,0,0,0,3.94,3.94h7.89a3.93,3.93,0,0,0,3.94-3.94Z" transform="translate(926.89 -770.15)"/><path class="cls-2" d="M-762.23,927.45v-5.92h7.89v5.92Zm7.89-9.86h-7.89a3.93,3.93,0,0,0-3.94,3.94v5.92a3.94,3.94,0,0,0,3.94,3.94h7.89a3.94,3.94,0,0,0,3.94-3.94v-5.92A3.93,3.93,0,0,0-754.34,917.59Z" transform="translate(926.89 -770.15)"/><path class="cls-2" d="M-742.27,892.26h7.89v5.91h-7.89Zm0,9.85h7.89a3.94,3.94,0,0,0,4-3.94v-5.91a4,4,0,0,0-4-4h-7.89a4,4,0,0,0-3.94,4v5.91A3.94,3.94,0,0,0-742.27,902.11Z" transform="translate(926.89 -770.15)"/><path class="cls-2" d="M-782.19,927.45v-5.92h7.89v5.92Zm7.89-9.86h-7.89a3.93,3.93,0,0,0-3.94,3.94v5.92a3.94,3.94,0,0,0,3.94,3.94h7.89a3.94,3.94,0,0,0,3.94-3.94v-5.92A3.93,3.93,0,0,0-774.3,917.59Z" transform="translate(926.89 -770.15)"/><path class="cls-2" d="M-717.19,953.08a21.69,21.69,0,0,1-21.69-21.69,21.69,21.69,0,0,1,21.69-21.69,21.69,21.69,0,0,1,21.69,21.69A21.73,21.73,0,0,1-717.19,953.08Zm0-47.33a25.64,25.64,0,0,0-25.64,25.64A25.63,25.63,0,0,0-717.19,957a25.62,25.62,0,0,0,25.63-25.63A25.66,25.66,0,0,0-717.19,905.75Z" transform="translate(926.89 -770.15)"/><path class="cls-3" d="M-717.19,953.08a21.69,21.69,0,0,1-21.69-21.69,21.69,21.69,0,0,1,21.69-21.69,21.69,21.69,0,0,1,21.69,21.69A21.73,21.73,0,0,1-717.19,953.08Zm0-47.33a25.64,25.64,0,0,0-25.64,25.64A25.63,25.63,0,0,0-717.19,957a25.62,25.62,0,0,0,25.63-25.63A25.66,25.66,0,0,0-717.19,905.75Z" transform="translate(926.89 -770.15)"/><path class="cls-2" d="M-705.8,923.12l-15.34,15.34-7-7a2,2,0,0,0-2.78,0,2,2,0,0,0,0,2.79l8.36,8.36a2,2,0,0,0,2.79,0L-703,925.91a2,2,0,0,0,0-2.79,2,2,0,0,0-2.79,0Z" transform="translate(926.89 -770.15)"/><path class="cls-3" d="M-705.8,923.12l-15.34,15.34-7-7a2,2,0,0,0-2.78,0,2,2,0,0,0,0,2.79l8.36,8.36a2,2,0,0,0,2.79,0L-703,925.91a2,2,0,0,0,0-2.79,2,2,0,0,0-2.79,0Z" transform="translate(926.89 -770.15)"/></svg>