<svg id="Layer_1" data-name="Layer 1" xmlns="http://www.w3.org/2000/svg" viewBox="0 0 366 304"><defs><style>.cls-1{fill:#ae8f74;}.cls-2{fill:#fff;}.cls-3{fill:none;stroke:#fff;stroke-width:1.5px;}</style></defs><title>icon_gym</title><path class="cls-1" d="M-926.89,412.15v-252c0-.85,0-1.7.13-2.55s.21-1.68.37-2.52.38-1.66.62-2.47.54-1.62.86-2.41.69-1.55,1.09-2.3.84-1.48,1.32-2.19a25.26,25.26,0,0,1,1.52-2.05q.81-1,1.71-1.89c.6-.6,1.23-1.18,1.89-1.72s1.34-1,2-1.52,1.44-.91,2.19-1.31,1.52-.76,2.3-1.09,1.59-.61,2.41-.86,1.64-.45,2.47-.62,1.68-.29,2.53-.37a23.87,23.87,0,0,1,2.54-.13h314a23.92,23.92,0,0,1,2.55.13c.85.08,1.69.21,2.53.37s1.66.38,2.47.62,1.62.54,2.4.86,1.56.69,2.31,1.09,1.48.84,2.19,1.31,1.39,1,2.05,1.52,1.29,1.12,1.89,1.72,1.17,1.23,1.71,1.89a25.26,25.26,0,0,1,1.52,2.05A24.36,24.36,0,0,1-564,147.9a23,23,0,0,1,1.09,2.3,23,23,0,0,1,.86,2.41,23.47,23.47,0,0,1,.62,2.47,24.34,24.34,0,0,1,.38,2.52q.12,1.28.12,2.55v252q0,1.28-.12,2.55a24.13,24.13,0,0,1-.38,2.53,23.47,23.47,0,0,1-.62,2.47,22.08,22.08,0,0,1-.86,2.4,22.11,22.11,0,0,1-1.09,2.31,24.36,24.36,0,0,1-1.31,2.19,25.26,25.26,0,0,1-1.52,2q-.81,1-1.71,1.89t-1.89,1.71a25.26,25.26,0,0,1-2.05,1.52c-.71.47-1.44.91-2.19,1.31a24.34,24.34,0,0,1-2.31,1.09,22.08,22.08,0,0,1-2.4.86,23.47,23.47,0,0,1-2.47.62c-.84.17-1.68.29-2.53.38s-1.69.12-2.55.12h-314c-.85,0-1.7,0-2.54-.12s-1.69-.21-2.53-.38a23.47,23.47,0,0,1-2.47-.62,23,23,0,0,1-2.41-.86,25.38,25.38,0,0,1-2.3-1.09c-.75-.4-1.48-.84-2.19-1.31a25.26,25.26,0,0,1-2-1.52q-1-.81-1.89-1.71t-1.71-1.89a25.26,25.26,0,0,1-1.52-2c-.48-.71-.91-1.44-1.32-2.19s-.76-1.52-1.09-2.31-.61-1.58-.86-2.4-.45-1.64-.62-2.47-.29-1.68-.37-2.53S-926.89,413-926.89,412.15Z" transform="translate(926.89 -134.15)"/><path class="cls-2" d="M-759.77,356.47h4.71v7.44a11,11,0,0,1-8.64,3.48,10.66,10.66,0,0,1-7.75-3.06,10.33,10.33,0,0,1-3.14-7.72,10.45,10.45,0,0,1,3.2-7.79,10.63,10.63,0,0,1,7.71-3.12,11.39,11.39,0,0,1,7.84,3l-2.43,3.51a9.21,9.21,0,0,0-2.59-1.69,7,7,0,0,0-2.57-.47,6.15,6.15,0,0,0-4.5,1.82,6.43,6.43,0,0,0-1.83,4.78,6.5,6.5,0,0,0,1.76,4.76,5.65,5.65,0,0,0,4.18,1.78,8,8,0,0,0,4.05-.93Z" transform="translate(926.89 -134.15)"/><path class="cls-2" d="M-748.82,373.51a6.54,6.54,0,0,1-4.47-1.92l2-3.33a3.37,3.37,0,0,0,2.34,1.11,1.31,1.31,0,0,0,1.08-.61,2.19,2.19,0,0,0,.45-1.31q0-.69-6.24-16.44h4.8l3.93,10.05L-741,351h4.8l-7.5,19a5.36,5.36,0,0,1-2.05,2.57A5.55,5.55,0,0,1-748.82,373.51Z" transform="translate(926.89 -134.15)"/><path class="cls-2" d="M-719.09,358.45v8.7h-4.53v-8.82a5.3,5.3,0,0,0-.58-2.82,2.09,2.09,0,0,0-1.89-.9,3.23,3.23,0,0,0-2.31,1,3.8,3.8,0,0,0-1,2.86v8.7h-4.5V351h4.5v1.83a5.57,5.57,0,0,1,4.26-2.1,4.64,4.64,0,0,1,2.78.9,5.84,5.84,0,0,1,1.87,2.19,6.35,6.35,0,0,1,2.51-2.28,6.84,6.84,0,0,1,3.16-.81,6.3,6.3,0,0,1,4.59,1.7,6.53,6.53,0,0,1,1.74,4.9v9.81H-713v-8.82q0-3.72-2.73-3.72a3.23,3.23,0,0,0-2.34,1A3.84,3.84,0,0,0-719.09,358.45Z" transform="translate(926.89 -134.15)"/><path class="cls-2" d="M-765.58,295.22a9.29,9.29,0,0,1-9.28-9.28,9.29,9.29,0,0,1,9.28-9.28,9.29,9.29,0,0,1,9.1,7.46h-9.1a1.83,1.83,0,0,0-1.82,1.82,1.83,1.83,0,0,0,1.82,1.82h9.1A9.29,9.29,0,0,1-765.58,295.22Zm16.76-11.1h-4A12.91,12.91,0,0,0-765.58,273a12.92,12.92,0,0,0-12.91,12.91,12.92,12.92,0,0,0,12.91,12.91,12.91,12.91,0,0,0,12.77-11.09h4a1.82,1.82,0,0,0,1.81-1.82A1.82,1.82,0,0,0-748.82,284.12Z" transform="translate(926.89 -134.15)"/><path class="cls-3" d="M-765.58,295.22a9.29,9.29,0,0,1-9.28-9.28,9.29,9.29,0,0,1,9.28-9.28,9.29,9.29,0,0,1,9.1,7.46h-9.1a1.83,1.83,0,0,0-1.82,1.82,1.83,1.83,0,0,0,1.82,1.82h9.1A9.29,9.29,0,0,1-765.58,295.22Zm16.76-11.1h-4A12.91,12.91,0,0,0-765.58,273a12.92,12.92,0,0,0-12.91,12.91,12.92,12.92,0,0,0,12.91,12.91,12.91,12.91,0,0,0,12.77-11.09h4a1.82,1.82,0,0,0,1.81-1.82A1.82,1.82,0,0,0-748.82,284.12Z" transform="translate(926.89 -134.15)"/><path class="cls-2" d="M-784.45,294.78V274.09a12.27,12.27,0,0,1,4.74-9.72,12.25,12.25,0,0,1,7.57-2.62,12.48,12.48,0,0,1,3,.37l56.45,14.11a12.32,12.32,0,0,1,9.35,12v6.57a12.35,12.35,0,0,1-12.34,12.34h-56.45A12.35,12.35,0,0,1-784.45,294.78Zm93.54,12.34h-14.62a15.93,15.93,0,0,0,5.85-12.34V288.2a16,16,0,0,0-12.11-15.5l-7.92-2,20.22-50.55a1.82,1.82,0,0,0-1-2.36,1.83,1.83,0,0,0-2.37,1l-5.84,14.61h-13a1.83,1.83,0,0,0-1.82,1.82,1.83,1.83,0,0,0,1.82,1.82h11.53l-13.11,32.76-41.9-10.47v-23h7.09a1.83,1.83,0,0,0,1.82-1.82,1.83,1.83,0,0,0-1.82-1.82h-17.84a1.82,1.82,0,0,0-1.81,1.82,1.82,1.82,0,0,0,1.81,1.82h7.11v22.08a15.85,15.85,0,0,0-13.13,3,15.87,15.87,0,0,0-6.15,12.59v20.69a15.94,15.94,0,0,0,5.85,12.34h-14.62a1.83,1.83,0,0,0-1.82,1.82,1.83,1.83,0,0,0,1.82,1.82h106a1.83,1.83,0,0,0,1.82-1.82A1.83,1.83,0,0,0-690.91,307.12Z" transform="translate(926.89 -134.15)"/><path class="cls-3" d="M-784.45,294.78V274.09a12.27,12.27,0,0,1,4.74-9.72,12.25,12.25,0,0,1,7.57-2.62,12.48,12.48,0,0,1,3,.37l56.45,14.11a12.32,12.32,0,0,1,9.35,12v6.57a12.35,12.35,0,0,1-12.34,12.34h-56.45A12.35,12.35,0,0,1-784.45,294.78Zm93.54,12.34h-14.62a15.93,15.93,0,0,0,5.85-12.34V288.2a16,16,0,0,0-12.11-15.5l-7.92-2,20.22-50.55a1.82,1.82,0,0,0-1-2.36,1.83,1.83,0,0,0-2.37,1l-5.84,14.61h-13a1.83,1.83,0,0,0-1.82,1.82,1.83,1.83,0,0,0,1.82,1.82h11.53l-13.11,32.76-41.9-10.47v-23h7.09a1.83,1.83,0,0,0,1.82-1.82,1.83,1.83,0,0,0-1.82-1.82h-17.84a1.82,1.82,0,0,0-1.81,1.82,1.82,1.82,0,0,0,1.81,1.82h7.11v22.08a15.85,15.85,0,0,0-13.13,3,15.87,15.87,0,0,0-6.15,12.59v20.69a15.94,15.94,0,0,0,5.85,12.34h-14.62a1.83,1.83,0,0,0-1.82,1.82,1.83,1.83,0,0,0,1.82,1.82h106a1.83,1.83,0,0,0,1.82-1.82A1.83,1.83,0,0,0-690.91,307.12Z" transform="translate(926.89 -134.15)"/></svg>