<svg id="Layer_1" data-name="Layer 1" xmlns="http://www.w3.org/2000/svg" viewBox="0 0 366 304"><defs><style>.cls-1{fill:#ae8f74;}.cls-2{fill:#fff;}</style></defs><title>icon_display</title><path class="cls-1" d="M-545.89,1048.15v-252c0-.85,0-1.7.13-2.55s.21-1.68.37-2.52.38-1.66.62-2.47.54-1.62.86-2.41.69-1.55,1.09-2.3.84-1.48,1.32-2.19a25.26,25.26,0,0,1,1.52-2.05q.81-1,1.71-1.89c.6-.6,1.23-1.18,1.89-1.72s1.34-1,2-1.52,1.44-.91,2.19-1.31,1.52-.76,2.3-1.09,1.59-.61,2.41-.86,1.64-.45,2.47-.62,1.68-.29,2.53-.37a23.87,23.87,0,0,1,2.54-.13h314a23.92,23.92,0,0,1,2.55.13c.85.08,1.69.21,2.53.37s1.66.38,2.47.62,1.62.54,2.4.86,1.56.69,2.31,1.09,1.48.84,2.19,1.31,1.39,1,2.05,1.52,1.29,1.12,1.89,1.72,1.17,1.23,1.71,1.89a25.26,25.26,0,0,1,1.52,2.05A24.36,24.36,0,0,1-183,783.9a23,23,0,0,1,1.09,2.3,23,23,0,0,1,.86,2.41,23.47,23.47,0,0,1,.62,2.47,24.34,24.34,0,0,1,.38,2.52q.12,1.27.12,2.55v252q0,1.27-.12,2.55a24.13,24.13,0,0,1-.38,2.53,23.47,23.47,0,0,1-.62,2.47,22.08,22.08,0,0,1-.86,2.4,22.11,22.11,0,0,1-1.09,2.31,24.36,24.36,0,0,1-1.31,2.19,25.26,25.26,0,0,1-1.52,2.05q-.81,1-1.71,1.89t-1.89,1.71a25.26,25.26,0,0,1-2.05,1.52c-.71.47-1.44.91-2.19,1.31a24.34,24.34,0,0,1-2.31,1.09,22.08,22.08,0,0,1-2.4.86,23.47,23.47,0,0,1-2.47.62c-.84.17-1.68.29-2.53.38s-1.69.12-2.55.12h-314c-.85,0-1.7,0-2.54-.12s-1.69-.21-2.53-.38a23.47,23.47,0,0,1-2.47-.62,23,23,0,0,1-2.41-.86,25.38,25.38,0,0,1-2.3-1.09c-.75-.4-1.48-.84-2.19-1.31a25.26,25.26,0,0,1-2-1.52q-1-.81-1.89-1.71t-1.71-1.89a25.26,25.26,0,0,1-1.52-2.05c-.48-.71-.91-1.44-1.32-2.19s-.76-1.52-1.09-2.31-.61-1.58-.86-2.4-.45-1.64-.62-2.47-.29-1.68-.37-2.53S-545.89,1049-545.89,1048.15Z" transform="translate(545.89 -770.15)"/><path class="cls-2" d="M-399.94,964.55a9.84,9.84,0,0,1,3,7.64,10.31,10.31,0,0,1-2.92,7.74q-2.92,2.85-8.93,2.85H-416v-21h7.41Q-402.94,961.81-399.94,964.55ZM-403.37,977a6.15,6.15,0,0,0,1.72-4.71,6.31,6.31,0,0,0-1.72-4.76q-1.72-1.66-5.3-1.66h-2.61v12.75h3A7,7,0,0,0-403.37,977Z" transform="translate(545.89 -770.15)"/><path class="cls-2" d="M-393.14,964.58a2.54,2.54,0,0,1-.77-1.87,2.57,2.57,0,0,1,.77-1.88,2.53,2.53,0,0,1,1.87-.76,2.56,2.56,0,0,1,1.88.76,2.56,2.56,0,0,1,.76,1.88,2.53,2.53,0,0,1-.76,1.87,2.57,2.57,0,0,1-1.88.77A2.54,2.54,0,0,1-393.14,964.58Zm4.12,18.2h-4.5V966.64h4.5Z" transform="translate(545.89 -770.15)"/><path class="cls-2" d="M-372.61,977.75a4.71,4.71,0,0,1-1.75,3.83,6.81,6.81,0,0,1-4.46,1.44,11.94,11.94,0,0,1-3.75-.65,11.05,11.05,0,0,1-3.51-1.9l2-2.82a8.62,8.62,0,0,0,5.37,2,2.43,2.43,0,0,0,1.38-.35,1,1,0,0,0,.51-.91,1.31,1.31,0,0,0-.7-1.05,8,8,0,0,0-2-.9q-1.34-.42-2-.72a11.5,11.5,0,0,1-1.61-.87,3.73,3.73,0,0,1-1.83-3.38,4.41,4.41,0,0,1,1.8-3.64,7.32,7.32,0,0,1,4.65-1.41,10.14,10.14,0,0,1,5.7,1.92l-1.68,3a7.35,7.35,0,0,0-4.18-1.44c-1.39,0-2.09.38-2.09,1.14a1.1,1.1,0,0,0,.66,1,13.36,13.36,0,0,0,2.19.84c1,.32,1.75.56,2.18.73a11,11,0,0,1,1.54.8A3.66,3.66,0,0,1-372.61,977.75Z" transform="translate(545.89 -770.15)"/><path class="cls-2" d="M-359.77,966.37a6.73,6.73,0,0,1,5,2.35,8.34,8.34,0,0,1,2.2,5.93,8.49,8.49,0,0,1-2.2,6,6.8,6.8,0,0,1-5.16,2.4,5.69,5.69,0,0,1-4.76-2.37v8h-4.5v-22h4.5v1.8A6.69,6.69,0,0,1-359.77,966.37Zm-5,8.35a4.68,4.68,0,0,0,1.1,3.21,3.41,3.41,0,0,0,2.65,1.25,3.64,3.64,0,0,0,2.73-1.25,4.47,4.47,0,0,0,1.17-3.19,4.83,4.83,0,0,0-1.14-3.27,3.49,3.49,0,0,0-2.73-1.32,3.36,3.36,0,0,0-2.68,1.3A4.92,4.92,0,0,0-364.72,974.72Z" transform="translate(545.89 -770.15)"/><path class="cls-2" d="M-344.68,982.78h-4.5V960.52h4.5Z" transform="translate(545.89 -770.15)"/><path class="cls-2" d="M-326.71,982.78h-4.23v-1.95a5.29,5.29,0,0,1-4.3,2.19,6.42,6.42,0,0,1-4.31-1.49,4.94,4.94,0,0,1-1.74-4,4.18,4.18,0,0,1,1.8-3.7,8.61,8.61,0,0,1,4.92-1.23h3.36v-.09q0-2.58-2.73-2.58a7.34,7.34,0,0,0-2.47.46,8.07,8.07,0,0,0-2.21,1.16l-2-2.91a12,12,0,0,1,7.26-2.31,7.51,7.51,0,0,1,4.8,1.47,5.57,5.57,0,0,1,1.86,4.65Zm-4.53-6.15v-.78h-2.82q-2.7,0-2.7,1.68a1.54,1.54,0,0,0,.65,1.33,3.1,3.1,0,0,0,1.84.47,3.3,3.3,0,0,0,2.12-.74A2.38,2.38,0,0,0-331.24,976.63Z" transform="translate(545.89 -770.15)"/><path class="cls-2" d="M-320,989.14a6.54,6.54,0,0,1-4.47-1.92l2-3.33a3.37,3.37,0,0,0,2.34,1.11,1.32,1.32,0,0,0,1.08-.62,2.16,2.16,0,0,0,.45-1.3q0-.69-6.24-16.44h4.8l3.93,10.05,3.93-10.05h4.8l-7.5,19a5.33,5.33,0,0,1-2.05,2.56A5.56,5.56,0,0,1-320,989.14Z" transform="translate(545.89 -770.15)"/><path class="cls-2" d="M-323.89,918.3h-78.19a7,7,0,0,1-7-7V909h92.16v2.33A7,7,0,0,1-323.89,918.3Zm-78.19-63.56h78.21a7,7,0,0,1,7,7v41.44h-92.19V861.73A7,7,0,0,1-402.08,854.74Zm78.19-5.82h-78.19a12.83,12.83,0,0,0-12.81,12.81v49.59a12.82,12.82,0,0,0,12.81,12.8h36.18v12.22h-18a2.91,2.91,0,0,0-2.91,2.91,2.9,2.9,0,0,0,2.91,2.91H-342a2.89,2.89,0,0,0,2.91-2.91,2.9,2.9,0,0,0-2.91-2.91h-18V924.12h36.19a12.81,12.81,0,0,0,12.8-12.8V861.73A12.81,12.81,0,0,0-323.89,848.92Z" transform="translate(545.89 -770.15)"/></svg>