<svg id="Layer_1" data-name="Layer 1" xmlns="http://www.w3.org/2000/svg" viewBox="0 0 366 304"><defs><style>.cls-1{fill:#ae8f74;}.cls-2{fill:#fff;}</style></defs><title>icon_session</title><path class="cls-1" d="M-545.89,730.15v-252c0-.85,0-1.7.13-2.55s.21-1.68.37-2.52.38-1.66.62-2.47.54-1.62.86-2.41.69-1.55,1.09-2.3.84-1.48,1.32-2.19a25.26,25.26,0,0,1,1.52-2q.81-1,1.71-1.89c.6-.6,1.23-1.18,1.89-1.72s1.34-1,2-1.52,1.44-.91,2.19-1.31,1.52-.76,2.3-1.09,1.59-.61,2.41-.86,1.64-.45,2.47-.62,1.68-.29,2.53-.37a23.87,23.87,0,0,1,2.54-.13h314a23.92,23.92,0,0,1,2.55.13c.85.08,1.69.21,2.53.37s1.66.38,2.47.62,1.62.54,2.4.86,1.56.69,2.31,1.09,1.48.84,2.19,1.31,1.39,1,2.05,1.52,1.29,1.12,1.89,1.72,1.17,1.23,1.71,1.89a25.26,25.26,0,0,1,1.52,2A24.36,24.36,0,0,1-183,465.9a23,23,0,0,1,1.09,2.3,23,23,0,0,1,.86,2.41,23.47,23.47,0,0,1,.62,2.47,24.34,24.34,0,0,1,.38,2.52q.12,1.27.12,2.55v252q0,1.27-.12,2.55a24.13,24.13,0,0,1-.38,2.53,23.47,23.47,0,0,1-.62,2.47,22.08,22.08,0,0,1-.86,2.4,22.11,22.11,0,0,1-1.09,2.31,24.36,24.36,0,0,1-1.31,2.19,25.26,25.26,0,0,1-1.52,2q-.81,1-1.71,1.89t-1.89,1.71a25.26,25.26,0,0,1-2.05,1.52c-.71.47-1.44.91-2.19,1.31a24.34,24.34,0,0,1-2.31,1.09,22.08,22.08,0,0,1-2.4.86,23.47,23.47,0,0,1-2.47.62c-.84.17-1.68.29-2.53.38s-1.69.12-2.55.12h-314c-.85,0-1.7,0-2.54-.12s-1.69-.21-2.53-.38a23.47,23.47,0,0,1-2.47-.62,23,23,0,0,1-2.41-.86,25.38,25.38,0,0,1-2.3-1.09c-.75-.4-1.48-.84-2.19-1.31a25.26,25.26,0,0,1-2-1.52q-1-.81-1.89-1.71t-1.71-1.89a25.26,25.26,0,0,1-1.52-2c-.48-.71-.91-1.44-1.32-2.19s-.76-1.52-1.09-2.31-.61-1.58-.86-2.4-.45-1.64-.62-2.47-.29-1.68-.37-2.53S-545.89,731-545.89,730.15Z" transform="translate(545.89 -452.15)"/><path class="cls-2" d="M-413.54,664.18a1.81,1.81,0,0,0-.68,1.47,1.67,1.67,0,0,0,.83,1.46,15.15,15.15,0,0,0,3.81,1.27,10.7,10.7,0,0,1,4.63,2.21,5.45,5.45,0,0,1,1.65,4.29,5.65,5.65,0,0,1-2.11,4.57,8.45,8.45,0,0,1-5.57,1.76,12.88,12.88,0,0,1-9-3.69l2.79-3.42q3.39,3,6.27,3a3.31,3.31,0,0,0,2-.56,1.78,1.78,0,0,0,.73-1.5,1.75,1.75,0,0,0-.78-1.5,10.2,10.2,0,0,0-3.09-1.12,13.41,13.41,0,0,1-5.35-2.27,5.35,5.35,0,0,1-1.7-4.38,5.42,5.42,0,0,1,2.15-4.6,8.62,8.62,0,0,1,5.35-1.62,12.88,12.88,0,0,1,4.2.72,11.25,11.25,0,0,1,3.66,2l-2.37,3.42a9.23,9.23,0,0,0-5.64-2.07A2.8,2.8,0,0,0-413.54,664.18Z" transform="translate(545.89 -452.15)"/><path class="cls-2" d="M-385.78,678.63a9,9,0,0,1-6.4,2.58,8.51,8.51,0,0,1-6.08-2.27,8,8,0,0,1-2.4-6.07,7.84,7.84,0,0,1,2.45-6.06,8.23,8.23,0,0,1,5.77-2.25,8.36,8.36,0,0,1,5.66,2,6.91,6.91,0,0,1,2.32,5.52v2.4h-11.76a3.21,3.21,0,0,0,1.38,2.16,4.42,4.42,0,0,0,2.64.84,5.18,5.18,0,0,0,3.9-1.59Zm-4.32-9.57a3.39,3.39,0,0,0-2.26-.78,4.07,4.07,0,0,0-2.45.81,3.1,3.1,0,0,0-1.29,2.19H-389A3.19,3.19,0,0,0-390.1,669.06Z" transform="translate(545.89 -452.15)"/><path class="cls-2" d="M-369.07,675.94a4.71,4.71,0,0,1-1.75,3.83,6.81,6.81,0,0,1-4.46,1.44,11.94,11.94,0,0,1-3.75-.65,11.05,11.05,0,0,1-3.51-1.9l2-2.82a8.62,8.62,0,0,0,5.37,1.95,2.43,2.43,0,0,0,1.38-.35,1,1,0,0,0,.51-.91,1.31,1.31,0,0,0-.7-1,8,8,0,0,0-2-.9q-1.33-.42-2-.72a11.5,11.5,0,0,1-1.61-.87,3.73,3.73,0,0,1-1.83-3.38,4.41,4.41,0,0,1,1.8-3.64,7.32,7.32,0,0,1,4.65-1.41,10.14,10.14,0,0,1,5.7,1.92l-1.68,3a7.35,7.35,0,0,0-4.18-1.44c-1.39,0-2.09.38-2.09,1.14a1.1,1.1,0,0,0,.66,1,13.36,13.36,0,0,0,2.19.84c1,.32,1.75.56,2.18.73a11,11,0,0,1,1.54.8A3.66,3.66,0,0,1-369.07,675.94Z" transform="translate(545.89 -452.15)"/><path class="cls-2" d="M-353.47,675.94a4.71,4.71,0,0,1-1.75,3.83,6.81,6.81,0,0,1-4.46,1.44,11.94,11.94,0,0,1-3.75-.65,11.05,11.05,0,0,1-3.51-1.9l2-2.82a8.62,8.62,0,0,0,5.37,1.95,2.43,2.43,0,0,0,1.38-.35,1,1,0,0,0,.51-.91,1.31,1.31,0,0,0-.7-1,8,8,0,0,0-2-.9q-1.33-.42-2-.72a11.5,11.5,0,0,1-1.61-.87,3.73,3.73,0,0,1-1.83-3.38,4.41,4.41,0,0,1,1.8-3.64,7.32,7.32,0,0,1,4.65-1.41,10.14,10.14,0,0,1,5.7,1.92l-1.68,3a7.35,7.35,0,0,0-4.18-1.44c-1.39,0-2.09.38-2.09,1.14a1.1,1.1,0,0,0,.66,1,13.36,13.36,0,0,0,2.19.84c1,.32,1.75.56,2.18.73a11,11,0,0,1,1.54.8A3.66,3.66,0,0,1-353.47,675.94Z" transform="translate(545.89 -452.15)"/><path class="cls-2" d="M-349.64,662.77a2.54,2.54,0,0,1-.77-1.87,2.57,2.57,0,0,1,.77-1.88,2.53,2.53,0,0,1,1.87-.76,2.56,2.56,0,0,1,1.88.76,2.56,2.56,0,0,1,.76,1.88,2.53,2.53,0,0,1-.76,1.87,2.57,2.57,0,0,1-1.88.77A2.54,2.54,0,0,1-349.64,662.77Zm4.12,18.2H-350V664.83h4.5Z" transform="translate(545.89 -452.15)"/><path class="cls-2" d="M-325.12,672.9a8,8,0,0,1-2.43,5.91,8.32,8.32,0,0,1-6.1,2.4,8.35,8.35,0,0,1-6.11-2.4,8,8,0,0,1-2.43-5.91,8,8,0,0,1,2.43-5.93,8.31,8.31,0,0,1,6.11-2.41,8.29,8.29,0,0,1,6.1,2.41A8,8,0,0,1-325.12,672.9Zm-12.54,0a4.62,4.62,0,0,0,1.13,3.22,3.71,3.71,0,0,0,2.88,1.25,3.71,3.71,0,0,0,2.88-1.25,4.61,4.61,0,0,0,1.12-3.22,4.68,4.68,0,0,0-1.12-3.24,3.69,3.69,0,0,0-2.88-1.26,3.69,3.69,0,0,0-2.88,1.26A4.68,4.68,0,0,0-337.66,672.9Z" transform="translate(545.89 -452.15)"/><path class="cls-2" d="M-317.29,672v9h-4.5V664.83h4.5v1.8a6.3,6.3,0,0,1,4.59-2.07,5.69,5.69,0,0,1,4.28,1.8,6.64,6.64,0,0,1,1.72,4.8V681h-4.5v-9.12q0-3.72-2.73-3.72a3.26,3.26,0,0,0-2.35,1A3.83,3.83,0,0,0-317.29,672Z" transform="translate(545.89 -452.15)"/><path class="cls-2" d="M-432.73,590.45v-9.78h-5.7v9.78Zm143.87,0v-9.81h-8.39v9.81Zm-53.23-9.79H-388v9.78h45.89Zm-84.17,4.8q0,13.88,0,27.76c0,2.26.56,2.8,2.8,2.82h4.6c2.94,0,3.4-.46,3.4-3.39V558.41c0-.32,0-.64,0-.95-.09-1.7-.78-2.4-2.46-2.42s-3.59,0-5.39,0c-2.46,0-2.95.49-3,3Zm111.72.08q0,13.88,0,27.75c0,2.16.58,2.73,2.72,2.74H-307c2.82,0,3.32-.5,3.32-3.3V565.63c0-2.7,0-5.4,0-8.09,0-1.79-.74-2.48-2.52-2.5s-3.49,0-5.24,0c-2.56,0-3,.48-3,3.06Q-314.55,571.82-314.54,585.54Zm-94.56-.17v33.15c0,2.21.64,2.85,2.81,2.86q4.59,0,9.2,0c1.95,0,2.66-.73,2.66-2.68q0-33.15,0-66.3c0-2-.7-2.68-2.66-2.69-3,0-5.92,0-8.88,0-2.61,0-3.13.53-3.13,3.17Zm73.45,0q0,16.5,0,33c0,2.36.65,3,3,3q4.51,0,9,0c1.95,0,2.7-.73,2.7-2.68q0-33.15,0-66.3c0-2-.74-2.68-2.7-2.69-2.9,0-5.81,0-8.72,0s-3.34.54-3.34,3.32Zm-109.24-9a4.55,4.55,0,0,1,4.55-2.16c2.52.1,5,0,7.74,0V572c0-4.76,0-9.52,0-14.28,0-5.59,3.43-9,9-9,2.84,0,5.68,0,8.67,0,1.77-4,5.15-5.57,9.61-5.37,2.85.13,5.71,0,8.57,0a8.39,8.39,0,0,1,8.68,8.72c0,6.72,0,13.44,0,20.15v1.85H-342V572.4q0-9.84,0-19.67c0-5.94,3.43-9.37,9.34-9.38,2.75,0,5.5.08,8.25,0,4.36-.17,7.59,1.47,9.31,5.38,3.38,0,6.65-.09,9.91,0,4.4.15,7.75,3.88,7.8,8.61,0,5,0,9.94,0,14.91v1.94h2.75c2.85,0,5.71,0,8.56,0,2.48,0,3.64,1.27,3.64,3.79q0,7.53,0,15.07c0,2.58-1.18,3.79-3.78,3.81-3.64,0-7.29,0-11.17,0v1.77c0,3.59-.18,7.2,0,10.78.53,9.18-1.93,13.76-13.06,13-1.46-.11-2.94,0-4.68,0a4.46,4.46,0,0,0-.28.48,8.38,8.38,0,0,1-7.92,4.86q-4.92,0-9.83,0c-5.29,0-8.84-3.58-8.87-8.89,0-6.66,0-13.33,0-20V597h-46.08v1.68q0,10,0,20c0,5.52-3.49,9-9,9.05-2.75,0-5.49,0-8.24,0-5.3,0-7.15-1.05-9.67-5.37-3.36,0-6.63.09-9.89,0a8.15,8.15,0,0,1-7.69-8.17c-.09-5.13,0-10.26,0-15.38,0-.57,0-1.14,0-1.91-2.7,0-5.22-.08-7.74,0a4.56,4.56,0,0,1-4.55-2.16Z" transform="translate(545.89 -452.15)"/></svg>