<svg id="Layer_1" data-name="Layer 1" xmlns="http://www.w3.org/2000/svg" viewBox="0 0 366 304"><defs><style>.cls-1{fill:#ae8f74;}.cls-2{fill:#fff;}.cls-3{fill:none;stroke:#fff;stroke-width:1.5px;}</style></defs><title>icon_category</title><path class="cls-1" d="M-545.89,412.15v-252c0-.85,0-1.7.13-2.55s.21-1.68.37-2.52.38-1.66.62-2.47.54-1.62.86-2.41.69-1.55,1.09-2.3.84-1.48,1.32-2.19a25.26,25.26,0,0,1,1.52-2.05q.81-1,1.71-1.89c.6-.6,1.23-1.18,1.89-1.72s1.34-1,2-1.52,1.44-.91,2.19-1.31,1.52-.76,2.3-1.09,1.59-.61,2.41-.86,1.64-.45,2.47-.62,1.68-.29,2.53-.37a23.87,23.87,0,0,1,2.54-.13h314a23.92,23.92,0,0,1,2.55.13c.85.08,1.69.21,2.53.37s1.66.38,2.47.62,1.62.54,2.4.86,1.56.69,2.31,1.09,1.48.84,2.19,1.31,1.39,1,2.05,1.52,1.29,1.12,1.89,1.72,1.17,1.23,1.71,1.89a25.26,25.26,0,0,1,1.52,2.05A24.36,24.36,0,0,1-183,147.9a23,23,0,0,1,1.09,2.3,23,23,0,0,1,.86,2.41,23.47,23.47,0,0,1,.62,2.47,24.34,24.34,0,0,1,.38,2.52q.12,1.28.12,2.55v252q0,1.28-.12,2.55a24.13,24.13,0,0,1-.38,2.53,23.47,23.47,0,0,1-.62,2.47,22.08,22.08,0,0,1-.86,2.4,22.11,22.11,0,0,1-1.09,2.31,24.36,24.36,0,0,1-1.31,2.19,25.26,25.26,0,0,1-1.52,2q-.81,1-1.71,1.89t-1.89,1.71a25.26,25.26,0,0,1-2.05,1.52c-.71.47-1.44.91-2.19,1.31a24.34,24.34,0,0,1-2.31,1.09,22.08,22.08,0,0,1-2.4.86,23.47,23.47,0,0,1-2.47.62c-.84.17-1.68.29-2.53.38s-1.69.12-2.55.12h-314c-.85,0-1.7,0-2.54-.12s-1.69-.21-2.53-.38a23.47,23.47,0,0,1-2.47-.62,23,23,0,0,1-2.41-.86,25.38,25.38,0,0,1-2.3-1.09c-.75-.4-1.48-.84-2.19-1.31a25.26,25.26,0,0,1-2-1.52q-1-.81-1.89-1.71t-1.71-1.89a25.26,25.26,0,0,1-1.52-2c-.48-.71-.91-1.44-1.32-2.19s-.76-1.52-1.09-2.31-.61-1.58-.86-2.4-.45-1.64-.62-2.47-.29-1.68-.37-2.53S-545.89,413-545.89,412.15Z" transform="translate(545.89 -134.15)"/><path class="cls-2" d="M-421,363a6.91,6.91,0,0,0,5.64-2.73l3,3.09a10.93,10.93,0,0,1-8.42,4,11,11,0,0,1-8-3.06,10.33,10.33,0,0,1-3.13-7.72,10.44,10.44,0,0,1,3.19-7.79,10.77,10.77,0,0,1,7.82-3.12,11.08,11.08,0,0,1,8.64,3.93l-2.91,3.3a6.82,6.82,0,0,0-5.52-2.76,6.45,6.45,0,0,0-4.52,1.73,6,6,0,0,0-1.87,4.65,6.33,6.33,0,0,0,1.77,4.69A5.84,5.84,0,0,0-421,363Z" transform="translate(545.89 -134.15)"/><path class="cls-2" d="M-395.6,367.15h-4.23V365.2a5.31,5.31,0,0,1-4.31,2.19,6.38,6.38,0,0,1-4.3-1.48,4.94,4.94,0,0,1-1.74-4,4.2,4.2,0,0,1,1.8-3.71,8.61,8.61,0,0,1,4.92-1.23h3.36v-.09q0-2.58-2.73-2.58a7.42,7.42,0,0,0-2.48.47,8,8,0,0,0-2.2,1.15l-2-2.91a12,12,0,0,1,7.26-2.31,7.51,7.51,0,0,1,4.8,1.47,5.57,5.57,0,0,1,1.86,4.65Zm-4.53-6.15v-.78h-2.82q-2.7,0-2.7,1.68a1.55,1.55,0,0,0,.64,1.34,3.14,3.14,0,0,0,1.85.46A3.26,3.26,0,0,0-401,363,2.41,2.41,0,0,0-400.13,361Z" transform="translate(545.89 -134.15)"/><path class="cls-2" d="M-386.3,354.25v7.23a2.09,2.09,0,0,0,.48,1.46,1.49,1.49,0,0,0,1.14.52,2.6,2.6,0,0,0,2.13-1.14l1.68,3.15a6.51,6.51,0,0,1-4.43,1.92,5.48,5.48,0,0,1-3.93-1.53,5.48,5.48,0,0,1-1.6-4.17v-7.44h-1.89V351h1.89v-4.83h4.53V351h3.9v3.24Z" transform="translate(545.89 -134.15)"/><path class="cls-2" d="M-364.49,364.81a9,9,0,0,1-6.41,2.58,8.48,8.48,0,0,1-6.07-2.26,8,8,0,0,1-2.4-6.08,7.83,7.83,0,0,1,2.44-6.06,8.26,8.26,0,0,1,5.78-2.25,8.34,8.34,0,0,1,5.65,2,6.92,6.92,0,0,1,2.33,5.52v2.4h-11.76a3.21,3.21,0,0,0,1.38,2.16,4.42,4.42,0,0,0,2.64.84,5.18,5.18,0,0,0,3.9-1.59Zm-4.32-9.57a3.42,3.42,0,0,0-2.27-.78,4,4,0,0,0-2.44.81,3.1,3.1,0,0,0-1.29,2.19h7.08A3.19,3.19,0,0,0-368.81,355.24Z" transform="translate(545.89 -134.15)"/><path class="cls-2" d="M-348,364.42a6.84,6.84,0,0,1-5.3,2.37,7.31,7.31,0,0,1-5.34-2.14,7.68,7.68,0,0,1-2.17-5.73,8.07,8.07,0,0,1,2.23-5.88,7,7,0,0,1,5.12-2.3,5.85,5.85,0,0,1,4.77,2.37V351h4.5v14.07a9.33,9.33,0,0,1-.75,3.84,6.63,6.63,0,0,1-2,2.64,9.16,9.16,0,0,1-5.88,2,12.32,12.32,0,0,1-3.68-.58,10.46,10.46,0,0,1-3.28-1.67l1.74-3.39a7.64,7.64,0,0,0,4.69,1.68,5.84,5.84,0,0,0,3.92-1.23A4.86,4.86,0,0,0-348,364.42Zm-.63-5.68a4.19,4.19,0,0,0-1.08-3.05,3.58,3.58,0,0,0-2.67-1.11,3.84,3.84,0,0,0-2.75,1.11,4,4,0,0,0-1.15,3,4.33,4.33,0,0,0,1.12,3.11A3.65,3.65,0,0,0-352.4,363a3.52,3.52,0,0,0,2.7-1.17A4.38,4.38,0,0,0-348.62,358.74Z" transform="translate(545.89 -134.15)"/><path class="cls-2" d="M-323.78,359.08a8,8,0,0,1-2.43,5.91,8.35,8.35,0,0,1-6.11,2.4,8.32,8.32,0,0,1-6.1-2.4,8,8,0,0,1-2.43-5.91,8,8,0,0,1,2.43-5.92,8.3,8.3,0,0,1,6.1-2.42,8.32,8.32,0,0,1,6.11,2.42A8,8,0,0,1-323.78,359.08Zm-12.54,0a4.64,4.64,0,0,0,1.12,3.23,3.7,3.7,0,0,0,2.88,1.24,3.7,3.7,0,0,0,2.88-1.24,4.64,4.64,0,0,0,1.13-3.23,4.68,4.68,0,0,0-1.13-3.24,3.69,3.69,0,0,0-2.88-1.26,3.69,3.69,0,0,0-2.88,1.26A4.68,4.68,0,0,0-336.32,359.08Z" transform="translate(545.89 -134.15)"/><path class="cls-2" d="M-312,355a3.41,3.41,0,0,0-3,1.43,6.46,6.46,0,0,0-1,3.76v7h-4.5V351h4.5v2.13a7.54,7.54,0,0,1,2.17-1.68,5.93,5.93,0,0,1,2.66-.72l0,4.23Z" transform="translate(545.89 -134.15)"/><path class="cls-2" d="M-305.33,373.51a6.54,6.54,0,0,1-4.47-1.92l2-3.33a3.37,3.37,0,0,0,2.34,1.11,1.31,1.31,0,0,0,1.08-.61,2.19,2.19,0,0,0,.45-1.31q0-.69-6.24-16.44h4.8l3.93,10.05,3.93-10.05h4.8l-7.5,19a5.38,5.38,0,0,1-2.06,2.57A5.52,5.52,0,0,1-305.33,373.51Z" transform="translate(545.89 -134.15)"/><path class="cls-2" d="M-373.4,246.23a4.13,4.13,0,0,1-.33,1.63,4.32,4.32,0,0,1-.92,1.39,4.16,4.16,0,0,1-1.39.92,4.17,4.17,0,0,1-1.63.33h-31.09V219.41a4.26,4.26,0,0,1,1.25-3,4.26,4.26,0,0,1,3-1.25h31.09Zm2.56-36.21h-33.65a9.39,9.39,0,0,0-6.64,2.75,9.45,9.45,0,0,0-2.76,6.64v33.65a2.56,2.56,0,0,0,.75,1.81,2.58,2.58,0,0,0,1.82.75h33.65a9.39,9.39,0,0,0,6.64-2.75,9.39,9.39,0,0,0,2.75-6.64V212.58a2.56,2.56,0,0,0-.75-1.81A2.56,2.56,0,0,0-370.84,210Z" transform="translate(545.89 -134.15)"/><path class="cls-3" d="M-373.4,246.23a4.13,4.13,0,0,1-.33,1.63,4.32,4.32,0,0,1-.92,1.39,4.16,4.16,0,0,1-1.39.92,4.17,4.17,0,0,1-1.63.33h-31.09V219.41a4.26,4.26,0,0,1,1.25-3,4.26,4.26,0,0,1,3-1.25h31.09Zm2.56-36.21h-33.65a9.39,9.39,0,0,0-6.64,2.75,9.45,9.45,0,0,0-2.76,6.64v33.65a2.56,2.56,0,0,0,.75,1.81,2.58,2.58,0,0,0,1.82.75h33.65a9.39,9.39,0,0,0,6.64-2.75,9.39,9.39,0,0,0,2.75-6.64V212.58a2.56,2.56,0,0,0-.75-1.81A2.56,2.56,0,0,0-370.84,210Z" transform="translate(545.89 -134.15)"/><path class="cls-2" d="M-373.4,305.63h-31.09a4.26,4.26,0,0,1-3-1.25,4.26,4.26,0,0,1-1.25-3V270.27h31.09a4.17,4.17,0,0,1,1.63.33,4.32,4.32,0,0,1,1.39.92,4.32,4.32,0,0,1,.92,1.39,4.13,4.13,0,0,1,.33,1.63Zm-4.27-40.48h-33.65a2.58,2.58,0,0,0-1.82.75,2.56,2.56,0,0,0-.75,1.81v33.65a9.45,9.45,0,0,0,2.76,6.64,9.45,9.45,0,0,0,6.64,2.76h33.65A2.56,2.56,0,0,0-369,310a2.6,2.6,0,0,0,.75-1.82V274.54A9.39,9.39,0,0,0-371,267.9,9.39,9.39,0,0,0-377.67,265.15Z" transform="translate(545.89 -134.15)"/><path class="cls-3" d="M-373.4,305.63h-31.09a4.26,4.26,0,0,1-3-1.25,4.26,4.26,0,0,1-1.25-3V270.27h31.09a4.17,4.17,0,0,1,1.63.33,4.32,4.32,0,0,1,1.39.92,4.32,4.32,0,0,1,.92,1.39,4.13,4.13,0,0,1,.33,1.63Zm-4.27-40.48h-33.65a2.58,2.58,0,0,0-1.82.75,2.56,2.56,0,0,0-.75,1.81v33.65a9.45,9.45,0,0,0,2.76,6.64,9.45,9.45,0,0,0,6.64,2.76h33.65A2.56,2.56,0,0,0-369,310a2.6,2.6,0,0,0,.75-1.82V274.54A9.39,9.39,0,0,0-371,267.9,9.39,9.39,0,0,0-377.67,265.15Z" transform="translate(545.89 -134.15)"/><path class="cls-2" d="M-318.27,301.36a4.26,4.26,0,0,1-1.25,3,4.26,4.26,0,0,1-3,1.25h-31.09V274.54a4.28,4.28,0,0,1,1.25-3,4.28,4.28,0,0,1,3-1.25h31.09Zm2.56-36.21h-33.65A9.39,9.39,0,0,0-356,267.9a9.39,9.39,0,0,0-2.75,6.64v33.65A2.6,2.6,0,0,0-358,310a2.56,2.56,0,0,0,1.81.75h33.65A9.45,9.45,0,0,0-315.9,308a9.39,9.39,0,0,0,2.75-6.64V267.71a2.56,2.56,0,0,0-.75-1.81A2.56,2.56,0,0,0-315.71,265.15Z" transform="translate(545.89 -134.15)"/><path class="cls-3" d="M-318.27,301.36a4.26,4.26,0,0,1-1.25,3,4.26,4.26,0,0,1-3,1.25h-31.09V274.54a4.28,4.28,0,0,1,1.25-3,4.28,4.28,0,0,1,3-1.25h31.09Zm2.56-36.21h-33.65A9.39,9.39,0,0,0-356,267.9a9.39,9.39,0,0,0-2.75,6.64v33.65A2.6,2.6,0,0,0-358,310a2.56,2.56,0,0,0,1.81.75h33.65A9.45,9.45,0,0,0-315.9,308a9.39,9.39,0,0,0,2.75-6.64V267.71a2.56,2.56,0,0,0-.75-1.81A2.56,2.56,0,0,0-315.71,265.15Z" transform="translate(545.89 -134.15)"/><path class="cls-2" d="M-349.36,228.56h26.82a4.26,4.26,0,0,1,3,1.25,4.26,4.26,0,0,1,1.25,3,4.29,4.29,0,0,1-1.25,3,4.26,4.26,0,0,1-3,1.25h-26.82a4.28,4.28,0,0,1-3-1.25,4.29,4.29,0,0,1-1.25-3,4.26,4.26,0,0,1,1.25-3A4.28,4.28,0,0,1-349.36,228.56Zm0,13.66h26.82a9.39,9.39,0,0,0,6.64-2.75,9.39,9.39,0,0,0,2.75-6.64,9.39,9.39,0,0,0-2.75-6.64,9.39,9.39,0,0,0-6.64-2.75h-26.82a9.39,9.39,0,0,0-6.64,2.75,9.39,9.39,0,0,0-2.75,6.64,9.39,9.39,0,0,0,2.75,6.64A9.39,9.39,0,0,0-349.36,242.22Z" transform="translate(545.89 -134.15)"/><path class="cls-3" d="M-349.36,228.56h26.82a4.26,4.26,0,0,1,3,1.25,4.26,4.26,0,0,1,1.25,3,4.29,4.29,0,0,1-1.25,3,4.26,4.26,0,0,1-3,1.25h-26.82a4.28,4.28,0,0,1-3-1.25,4.29,4.29,0,0,1-1.25-3,4.26,4.26,0,0,1,1.25-3A4.28,4.28,0,0,1-349.36,228.56Zm0,13.66h26.82a9.39,9.39,0,0,0,6.64-2.75,9.39,9.39,0,0,0,2.75-6.64,9.39,9.39,0,0,0-2.75-6.64,9.39,9.39,0,0,0-6.64-2.75h-26.82a9.39,9.39,0,0,0-6.64,2.75,9.39,9.39,0,0,0-2.75,6.64,9.39,9.39,0,0,0,2.75,6.64A9.39,9.39,0,0,0-349.36,242.22Z" transform="translate(545.89 -134.15)"/></svg>